<svg xmlns="http://www.w3.org/2000/svg" xmlns:xlink="http://www.w3.org/1999/xlink" width="300" zoomAndPan="magnify" viewBox="0 0 224.87999 225" height="300" preserveAspectRatio="xMidYMid meet" version="1.0"><path fill="#b5d74d" d="M 175.507812 130.800781 C 175.507812 133.921875 172.976562 136.449219 169.855469 136.449219 C 166.734375 136.449219 161.617188 132.921875 161.617188 129.800781 C 161.617188 126.679688 166.734375 125.148438 169.855469 125.148438 C 172.976562 125.148438 175.507812 127.679688 175.507812 130.800781 Z M 192.929688 83.859375 C 186.792969 87.40625 176.605469 90.050781 174.753906 86.839844 C 172.902344 83.628906 180.078125 75.78125 186.21875 72.234375 C 192.359375 68.691406 198.839844 68.417969 200.691406 71.628906 C 202.546875 74.839844 199.070312 80.316406 192.929688 83.859375 Z M 69.171875 15.039062 C 70.859375 19.625 71.460938 26.855469 69.0625 27.734375 C 66.664062 28.617188 62.171875 22.820312 60.484375 18.230469 C 58.800781 13.644531 59.375 9.210938 61.773438 8.328125 C 64.171875 7.449219 67.484375 10.449219 69.171875 15.039062 Z M 151.296875 118.410156 C 168.023438 133.371094 147.144531 129.777344 147.941406 135.539062 C 153.9375 178.886719 219.933594 181.867188 204.183594 199.5625 C 188.433594 217.261719 171.335938 156.917969 125.21875 158.960938 C 79.40625 159.277344 95.136719 213.101562 70.320312 203.332031 C 50.277344 192.3125 88.679688 172.984375 66.339844 142.480469 C 45.886719 114.855469 6.089844 145.261719 5.417969 122.777344 C 4.75 100.296875 52.269531 136.582031 71.136719 88.792969 C 89.03125 62.511719 65.433594 47.699219 76.84375 44.765625 C 88.25 41.832031 81.011719 68.714844 108.597656 74.402344 C 118.910156 76.53125 126.191406 53.238281 135.917969 59.695312 C 145.640625 66.152344 134.144531 78.039062 138.792969 87.292969 C 144.632812 98.933594 161.472656 82.035156 165.808594 92.324219 C 170.144531 102.609375 146.253906 109.832031 151.296875 118.410156 C 156.515625 118.410156 172.5 118.410156 151.296875 118.410156 Z M 151.296875 118.410156 " fill-opacity="1" fill-rule="nonzero"/></svg>